<svg width="180" height="45" viewBox="0 0 180 45" fill="none" xmlns="http://www.w3.org/2000/svg">
<g clip-path="url(#clip0_3022_17171)">
<path d="M74.9902 35.4937C76.1301 33.7442 77.2231 32.0707 78.3089 30.3935C78.6696 29.8369 79.0015 29.2658 79.3766 28.72C79.4704 28.5826 79.6688 28.467 79.8347 28.4453C80.1449 28.4019 80.4624 28.4272 80.7798 28.4272C84.8668 28.4272 88.9538 28.4344 93.0443 28.438C93.0876 28.438 93.1309 28.4236 93.2139 28.4127C93.2211 28.2718 93.2319 28.1272 93.2319 27.9826C93.2355 25.2861 93.2391 22.5933 93.2463 19.8968C93.2536 17.0052 91.67 15.0425 88.8888 14.569C87.0419 14.2545 85.3141 14.6629 83.6908 15.5774C82.3958 16.3076 81.256 17.2293 80.2099 18.2775C80.0836 18.404 79.9574 18.5305 79.7518 18.7329C79.7373 18.498 79.7229 18.3462 79.7229 18.1944C79.7229 16.1774 79.7337 14.1569 79.7157 12.14C79.7121 11.7026 79.8708 11.3954 80.1846 11.1243C82.2047 9.38205 84.488 8.18201 87.1141 7.65067C91.367 6.7904 96.1357 8.09526 98.989 12.111C100.421 14.128 101.031 16.4052 101.027 18.8631C101.024 21.874 101.049 24.8849 101.027 27.8995C101.027 28.3549 101.193 28.4272 101.568 28.4272C104.017 28.4272 106.467 28.4381 108.916 28.4308C110.435 28.4272 111.953 28.4525 113.465 28.3621C115.618 28.232 116.935 26.8982 117.133 24.744C117.187 24.162 117.177 23.5728 117.173 22.9837C117.166 20.092 117.155 17.2004 117.141 14.3087C117.141 14.034 117.126 13.8099 117.523 13.8135C119.929 13.828 122.331 13.828 124.737 13.8316C124.795 13.8316 124.853 13.846 124.968 13.8641C124.968 14.1641 124.968 14.4605 124.968 14.7569C124.968 17.8148 124.961 20.8691 124.975 23.9271C124.975 24.4801 125.04 25.0404 125.149 25.5825C125.459 27.1151 126.732 28.2682 128.29 28.3585C129.625 28.438 130.963 28.4236 132.298 28.4308C134.311 28.4417 136.327 28.42 138.34 28.4417C138.766 28.4453 138.874 28.3043 138.87 27.8995C138.86 23.4427 138.87 18.986 138.856 14.5256C138.856 14.0991 138.953 13.9545 139.401 13.9581C141.789 13.9798 144.177 13.9689 146.597 13.9689C146.619 14.1352 146.648 14.2473 146.648 14.3593C146.648 18.6498 146.648 22.9439 146.644 27.2344C146.644 27.4766 146.705 27.7224 146.662 27.9537C146.575 28.4055 146.781 28.4308 147.153 28.4272C149.692 28.4127 152.232 28.4272 154.771 28.4272C155.449 28.4272 155.453 28.42 155.446 27.7549C155.42 23.3271 155.399 18.8992 155.355 14.475C155.352 14.034 155.478 13.9039 155.911 13.9075C158.194 13.9219 160.481 13.9219 162.765 13.9039C163.136 13.9039 163.212 14.0304 163.212 14.3702C163.201 18.9173 163.208 23.4644 163.197 28.0151C163.197 28.2935 163.234 28.4381 163.547 28.4308C165.243 28.4019 166.945 28.4417 168.637 28.3477C170.679 28.2356 172.078 26.8115 172.129 24.744C172.201 21.733 172.176 18.7221 172.183 15.7112C172.187 13.799 172.176 11.8869 172.172 9.97484C172.172 9.84471 172.197 9.71459 172.212 9.55555C172.504 9.55555 172.757 9.55555 173.009 9.55555C175.173 9.56277 177.338 9.57362 179.502 9.56639C179.859 9.56639 180.007 9.6423 180.007 10.0363C179.982 14.9919 180.014 19.9438 179.942 24.8994C179.874 29.4646 177.284 33.1406 173.197 34.6587C171.458 35.3021 169.647 35.5371 167.804 35.5371C154.295 35.5371 140.786 35.5371 127.273 35.5371C113.086 35.5371 98.8989 35.5371 84.7117 35.5371C81.6924 35.5371 78.6696 35.5298 75.6504 35.5262C75.4592 35.5262 75.2644 35.5081 74.9938 35.4937H74.9902Z" fill="black"/>
<path d="M71.9811 35.3827H44.8909C44.8909 35.1911 44.8909 35.0176 44.8909 34.8441C44.8909 30.1307 44.9197 25.4173 44.8692 20.7039C44.8584 19.5111 44.7177 18.2894 44.4219 17.1363C43.8881 15.0652 42.5426 14.1073 40.537 13.829C39.2961 13.6555 38.0191 13.7386 36.7602 13.7206C36.3851 13.7169 36.1001 13.7712 36.1001 14.317C36.1181 19.2581 36.1001 24.1956 36.1001 29.1367C36.1001 31.0488 36.1001 32.9609 36.1001 34.873C36.1001 35.0357 36.0857 35.1947 36.0749 35.3935C35.8873 35.3935 35.7394 35.3935 35.5915 35.3935C30.5558 35.3935 25.5201 35.4224 20.4881 35.3791C17.9017 35.3574 15.3334 35.061 12.8227 34.3995C10.6801 33.832 8.62034 33.0404 6.7518 31.8259C3.56663 29.7584 1.55741 26.8631 0.666432 23.1546C-0.231764 19.4063 -0.213728 15.6724 0.702504 11.9386C0.875651 11.2374 1.09208 10.5506 1.31934 9.86382C1.36262 9.73369 1.55381 9.56381 1.67645 9.56019C3.93096 9.54212 6.18547 9.54935 8.43998 9.55296C8.46523 9.55296 8.49048 9.58188 8.56262 9.61803C8.5013 9.80237 8.46523 10.012 8.37144 10.1891C7.80872 11.2554 7.66804 12.4229 7.57786 13.5941C7.41192 15.7411 7.3001 17.8845 7.63557 20.0352C8.1478 23.3317 9.73858 25.8438 12.7614 27.3728C14.85 28.4319 17.0865 28.9415 19.3951 29.0463C22.3963 29.1837 25.4011 29.1765 28.4059 29.2451C28.7053 29.2524 28.7594 29.1114 28.7594 28.8656C28.7594 27.9909 28.7702 27.1198 28.7702 26.245C28.7702 20.5376 28.7666 14.8302 28.763 9.12283C28.763 8.45052 28.7739 8.42522 29.4268 8.29509C32.9258 7.58664 36.4536 7.13843 40.032 7.32278C42.6869 7.46013 45.248 7.97701 47.5278 9.44814C49.7245 10.8651 51.0015 12.9434 51.6436 15.4339C52.0692 17.0857 52.2748 18.7737 52.2785 20.4834C52.2857 23.2377 52.2893 25.9956 52.2857 28.7499C52.2857 29.0463 52.3109 29.2307 52.6825 29.2307C56.636 29.2234 60.5859 29.2307 64.5394 29.2307C64.5538 29.2307 64.5646 29.2198 64.6187 29.1981C64.6332 29.1078 64.662 28.9921 64.662 28.8801C64.662 22.6594 64.6584 16.4423 64.6512 10.2217C64.6512 9.59995 64.6404 9.59995 65.2608 9.59995C67.3783 9.59995 69.4993 9.61441 71.6167 9.59995C71.9522 9.59995 72.0207 9.70116 72.0207 10.0084C72.0063 17.5375 71.9991 25.0667 71.9883 32.5958C71.9883 33.5103 71.9883 34.4248 71.9883 35.3827H71.9811Z" fill="black"/>
<path d="M61.5612 9.36305C61.7055 8.83532 61.9002 8.34374 61.9688 7.83409C62.0878 6.95936 61.9327 6.13524 61.3267 5.42679C60.8614 4.88099 60.3636 4.34242 60.259 3.57974C60.1111 2.47007 60.1255 1.411 61.0562 0.586879C61.5467 0.149516 62.1239 -0.016754 62.7588 0.00131884C63.3179 0.0193917 63.6245 0.427838 63.9131 0.843513C63.9996 0.970023 64.0826 1.10015 64.2016 1.28088C64.3351 1.10015 64.4181 0.980867 64.5047 0.865201C65.4065 -0.374596 66.9936 -0.230013 67.6646 1.1616C68.2381 2.3544 68.2994 3.59059 67.9207 4.85568C67.3255 6.83285 65.879 7.95337 64.0574 8.67267C63.3756 8.94015 62.6578 9.11365 61.9544 9.32329C61.8173 9.36305 61.6694 9.35582 61.5648 9.37028L61.5612 9.36305Z" fill="black"/>
<path d="M54.4762 14.3461C54.6349 13.7858 54.808 13.3051 54.9054 12.8135C55.1002 11.8304 54.891 10.9412 54.2092 10.1713C53.6249 9.50981 53.1956 8.77967 53.1126 7.85434C52.972 6.31815 53.9856 5.01329 55.4465 4.93377C56.0814 4.90124 56.5539 5.12895 56.8389 5.71813C56.9074 5.86271 57.0048 5.99284 57.1239 6.18802C57.2537 6.00007 57.3403 5.86633 57.4341 5.7362C58.2998 4.57593 59.8617 4.68436 60.5615 5.95308C61.4669 7.59048 61.2216 9.97971 59.9988 11.4761C59.0501 12.6328 57.802 13.3268 56.4168 13.7931C55.7964 14.0027 55.1579 14.1581 54.4798 14.3497L54.4762 14.3461Z" fill="black"/>
<path d="M24.3711 38.9857C24.5118 38.9748 24.6597 38.9531 24.804 38.9531C26.3803 38.9531 27.9603 38.9604 29.5366 38.9531C29.818 38.9531 29.9082 39.0543 29.9046 39.3182C29.8973 40.9592 29.8973 42.6002 29.901 44.2412C29.901 44.4581 29.8793 44.6172 29.5907 44.6172C27.8629 44.6099 26.135 44.6135 24.3711 44.6135V38.9857Z" fill="black"/>
<path d="M36.22 39.0327V44.61C36.0396 44.61 35.8809 44.61 35.7222 44.61C34.2035 44.61 32.6849 44.5955 31.1699 44.6208C30.7442 44.6281 30.6396 44.4871 30.6468 44.0786C30.6685 42.4991 30.6576 40.9159 30.6468 39.3363C30.6468 39.1086 30.6793 38.9496 30.9498 38.9532C32.6488 38.964 34.3442 38.9713 36.0432 38.9857C36.0865 38.9857 36.1298 39.011 36.22 39.0363V39.0327Z" fill="black"/>
<path d="M127.111 39.0462C127.111 40.7884 127.111 42.5343 127.111 44.2765C127.111 44.5259 127.017 44.6199 126.765 44.6199C125.141 44.6126 123.522 44.6126 121.899 44.6199C121.642 44.6199 121.523 44.5512 121.523 44.262C121.531 42.6066 121.516 40.9511 121.531 39.2956C121.531 39.1872 121.693 38.9811 121.78 38.9811C123.489 38.9703 125.203 38.9812 126.913 38.9884C126.97 38.9884 127.024 39.0245 127.107 39.0498L127.111 39.0462Z" fill="black"/>
<path d="M115.197 41.8111C115.197 41.0159 115.208 40.2171 115.19 39.4219C115.183 39.0894 115.255 38.9339 115.634 38.9376C117.21 38.9592 118.786 38.9592 120.359 38.9484C120.666 38.9484 120.745 39.0568 120.745 39.3388C120.738 40.9473 120.741 42.5557 120.749 44.1642C120.749 44.4751 120.68 44.616 120.323 44.6124C118.747 44.5944 117.17 44.6016 115.598 44.616C115.273 44.616 115.19 44.5112 115.197 44.2004C115.219 43.4052 115.204 42.6063 115.204 41.8111H115.197Z" fill="black"/>
<path d="M119.972 9.63091C119.863 10.8599 119.506 11.2394 118.186 11.5466C117.068 11.8033 116.505 11.6189 116.058 10.8346C115.975 10.6936 115.906 10.5382 115.859 10.3827C115.672 9.73573 115.506 9.07788 115.308 8.43448C115.228 8.16701 115.29 8.04773 115.56 7.99351C117.057 7.70073 116.639 7.38265 117.122 8.861C117.198 9.08872 117.263 9.32005 117.356 9.54054C117.566 10.0285 117.901 10.2092 118.392 10.1153C118.796 10.0394 119.124 9.65982 119.088 9.18993C119.041 8.6369 118.951 8.08387 118.814 7.54891C118.727 7.21637 118.792 7.07902 119.117 7.01034C119.319 6.96697 119.524 6.89106 119.705 6.78986C120.062 6.59467 120.181 6.76817 120.26 7.08625C120.376 7.55253 120.477 8.02604 120.653 8.46702C120.87 9.00559 121.274 9.20439 121.714 9.07065C122.208 8.92245 122.457 8.56099 122.363 7.98989C122.277 7.45855 122.147 6.93082 121.988 6.41756C121.894 6.12116 121.912 5.97296 122.241 5.9079C122.58 5.84284 122.904 5.71633 123.247 5.67295C123.362 5.6585 123.586 5.79223 123.615 5.90067C123.81 6.64166 124.012 7.38626 124.131 8.13809C124.315 9.29837 123.341 10.3538 122.064 10.4406C121.339 10.4912 120.693 10.3177 120.192 9.7538C120.152 9.71043 120.109 9.66705 120.058 9.63091C120.04 9.61645 120.004 9.62368 119.975 9.62006L119.972 9.63091Z" fill="black"/>
</g>
<defs>
<clipPath id="clip0_3022_17171">
<rect width="180" height="44.6218" fill="white"/>
</clipPath>
</defs>
</svg>
